# xmcd
#
# Track frame offsets: 
#        150
#        13684
#        38995
#        59355
#        82077
#        106595
#        123295
#        138470
#        162350
#        183692
#        202412
#
# Disc length: 2976 seconds
#
# Revision: 1
# Processed by: cddbd v1.5.2PL0 Copyright (c) Steve Scherf et al.
# Submitted via: ExactAudioCopy v1.0b3
#
DISCID=9d0b9e0b
DTITLE=The Blues Torpedos - Midnight Man
DYEAR=1995
DGENRE=Blues
TTITLE0=I Don't Want No Man
TTITLE1=Payin' the Cost to be the Boss
TTITLE2=I Declare
TTITLE3=Midnight Man
TTITLE4=This Man is Killing Me
TTITLE5=T. Bone Tuesday
TTITLE6=Sugar Coated Love
TTITLE7=I Want to Love You
TTITLE8=Missin' Ya
TTITLE9=24 Hour Fool
TTITLE10=Down the Road and Gone
EXTD=
EXTT0=
EXTT1=
EXTT2=
EXTT3=
EXTT4=
EXTT5=
EXTT6=
EXTT7=
EXTT8=
EXTT9=
EXTT10=
PLAYORDER=
